# AST/ASF file generated using VICON BodyLanguage
# -----------------------------------------------
:version 1.10
:name VICON
:units
  mass 1.0
  length 0.45
  angle deg
:documentation
   .ast/.asf automatically generated from VICON data using
   VICON BodyBuilder and BodyLanguage model FoxedUp or BRILLIANT.MOD
:root
   order TX TY TZ RX RY RZ
   axis XYZ
   position 0 0 0  
   orientation 0 0 0 
:bonedata
  begin
     id 1 
     name lhipjoint
     direction 0.54267 -0.795011 0.271047 
     length 2.39899 
     axis 0 0 0  XYZ
  end
  begin
     id 2 
     name lfemur
     direction 0.34202 -0.939693 0  
     length 7.49701  
     axis 0 0 20  XYZ
    dof rx ry rz
    limits (-160.0 20.0)
           (-70.0 70.0)
           (-60.0 70.0)
  end
  begin
     id 3 
     name ltibia
     direction 0.34202 -0.939693 0   
     length 8.1668   
     axis 0 0 20   XYZ
    dof rx
    limits (-10.0 170.0)
  end
  begin
     id 4 
     name lfoot
     direction 0.0736283 -0.202292 0.976554   
     length 2.13544   
     axis -90 7.62852e-016 20   XYZ
    dof rx rz
    limits (-45.0 90.0)
           (-70.0 20.0)
  end
  begin
     id 5 
     name ltoes
     direction 1.53557e-011 -4.22024e-011 1   
     length 1.07411   
     axis -90 7.62852e-016 20   XYZ
    dof rx
    limits (-90.0 20.0)
  end
  begin
     id 6 
     name rhipjoint
     direction -0.538061 -0.797813 0.272002   
     length 2.39057  
     axis 0 0 0  XYZ 
  end
  begin
     id 7 
     name rfemur
     direction -0.34202 -0.939693 0   
     length 7.50152   
     axis 0 0 -20   XYZ
    dof rx ry rz
    limits (-160.0 20.0)
           (-70.0 70.0)
           (-70.0 60.0)
  end
  begin
     id 8 
     name rtibia
     direction -0.34202 -0.939693 0   
     length 8.05793   
     axis 0 0 -20   XYZ
    dof rx
    limits (-10.0 170.0)
 end
 begin
     id 9 
     name rfoot
     direction -0.0765195 -0.210236 0.974652   
     length 2.28698  
     axis -90 -7.62852e-016 -20   XYZ
    dof rx rz
    limits (-45.0 90.0)
           (-20.0 70.0)
  end
  begin
     id 10 
     name rtoes
     direction -1.53542e-011 -4.21847e-011 1   
     length 1.14762   
     axis -90 -7.62852e-016 -20   XYZ
    dof rx
    limits (-90.0 20.0)
  end
  begin
     id 11 
     name lowerback
     direction -0.0217239 0.996592 -0.0795765   
     length 2.08176   
     axis 0 0 0   XYZ
    dof rx ry rz
    limits (-20.0 45.0)
           (-30.0 30.0)
           (-30.0 30.0)
  end
  begin
     id 12 
     name upperback
     direction -0.00563773 0.999651 -0.0258155   
     length 2.08898   
     axis 0 0 0   XYZ
    dof rx ry rz
    limits (-20.0 45.0)
           (-30.0 30.0)
           (-30.0 30.0)
  end
  begin
     id 13 
     name thorax
     direction 0.0032706 0.999923 0.0119599   
     length 2.0968   
     axis 0 0 0   XYZ
    dof rx ry rz
    limits (-20.0 45.0)
           (-30.0 30.0)
           (-30.0 30.0)
  end
  begin
     id 14 
     name lowerneck
     direction -0.0285886 0.99568 0.0883427   
     length 1.81272   
     axis 0 0 0   XYZ
    dof rx ry rz
    limits (-20.0 45.0)
           (-30.0 30.0)
           (-30.0 30.0)
  end
  begin
     id 15 
     name upperneck
     direction 0.0807535 0.97985 -0.18268   
     length 1.82518   
     axis 0 0 0   XYZ
    dof rx ry rz
    limits (-20.0 45.0)
           (-30.0 30.0)
           (-30.0 30.0)
  end
  begin
     id 16
     name head
     direction 0.0236605 0.997053 -0.0729767  
     length 1.84443  
     axis 0 0 0   XYZ
    dof rx ry rz
    limits (-20.0 45.0)
           (-30.0 30.0)
           (-30.0 30.0)
  end
  begin
     id 17 
     name lclavicle
     direction 0.918986 0.39378 -0.0200683  
     length 3.27822  
     axis 0 0 0   XYZ
    dof ry rz
    limits (-20.0 10.0)
           (0.0 20.0)
  end
  begin
     id 18 
     name lhumerus
     direction 1 -4.4897e-011 2.09544e-027   
     length 5.5568   
     axis 180 -30 -90   XYZ
    dof rx ry rz
    limits (-60.0 90.0)
           (-90.0 90.0)
           (-90.0 90.0)
  end
  begin
     id 19
     name lradius
     direction 1 -4.48957e-011 -1.27696e-026   
     length 3.63979   
     axis 180 -30 -90   XYZ
    dof rx
    limits (-10.0 170.0)
  end
  begin
     id 20
     name lwrist
     direction 1 -4.49001e-011 -1.49001e-026   
     length 1.8199   
     axis 9.0955e-015 90 90   XYZ
    dof ry
    limits (-180.0 0.0)
 end
  begin
     id 21 
     name lhand
     direction 1 -4.48709e-011 -2.9758e-026   
     length 0.569419   
     axis 1.90115e-014 90 90   XYZ
    dof rx rz
    limits (-90.0 90.0)
           (-45.0 45.0)
  end
  begin
     id 22 
     name lfingers
     direction 1 -4.49175e-011 -5.96505e-026   
     length 0.45908   
     axis 3.80223e-014 90 90   XYZ
    dof rx
    limits (0.0 90.0)
  end
  begin
     id 23
     name lthumb
     direction 0.707107 -6.34864e-011 0.707107   
     length 0.65915   
     axis -90 45 -3.84942e-014   XYZ
    dof rx rz
    limits (-45.0 45.0)
           (-45.0 45.0)
  end
  begin
     id 24 
     name rclavicle
     direction -0.911913 0.396426 -0.106115   
     length 3.46301  
     axis 0 0 0   XYZ 
    dof ry rz
    limits (-10.0 20.0)
           (-20.0 0.0)
  end
  begin
     id 25 
     name rhumerus
     direction -1 -4.48965e-011 7.78516e-028  
     length 5.34339   
     axis 180 30 90   XYZ
    dof rx ry rz
    limits (-90.0 60.0)
           (-90.0 90.0)
           (-90.0 90.0)
  end
  begin
     id 26 
     name rradius
     direction -1 -4.48948e-011 -5.79823e-027   
     length 3.65101   
     axis 180 30 90   XYZ
    dof rx
    limits (-10.0 170.0)
  end
  begin
     id 27 
     name rwrist
     direction -1 -4.48995e-011 -1.48996e-026   
     length 1.8255   
     axis 9.0955e-015 -90 -90   XYZ
    dof ry
    limits (-180.0 0.0)
  end
  begin
     id 28
     name rhand
     direction -1 -4.48957e-011 -2.97937e-026   
     length 0.694249   
     axis 1.90115e-014 -90 -90   XYZ
    dof rx rz
    limits (-90.0 90.0)
           (-45.0 45.0)
  end
  begin
     id 29
     name rfingers
     direction -1 -4.4898e-011 -5.95943e-026   
     length 0.559721   
     axis 3.80223e-014 -90 -90   XYZ
    dof rx
    limits (0.0 90.0)
  end
  begin
     id 30
     name rthumb
     direction -0.707107 -6.34969e-011 0.707107   
     length 0.803651   
     axis -90 -45 3.84942e-014   XYZ
    dof rx rz
    limits (-45.0 45.0)
           (-45.0 45.0)
  end
:hierarchy
  begin
    root lhipjoint rhipjoint lowerback
    lhipjoint lfemur
    lfemur ltibia
    ltibia lfoot
    lfoot ltoes
    rhipjoint rfemur
    rfemur rtibia
    rtibia rfoot
    rfoot rtoes
    lowerback upperback
    upperback thorax
    thorax lowerneck lclavicle rclavicle
    lowerneck upperneck
    upperneck head
    lclavicle lhumerus
    lhumerus lradius
    lradius lwrist
    lwrist lhand lthumb
    lhand lfingers
    rclavicle rhumerus
    rhumerus rradius
    rradius rwrist
    rwrist rhand rthumb
    rhand rfingers
  end

#!OML:ASF H:\Terrain\Walking\May29\JustinRory\rory.ASF
:FULLY-SPECIFIED
:DEGREES
111
root 12.729 18.5313 -6.12087 -2.02941 -19.6419 1.51147
lowerback 0.775251 1.49085 -4.82193
upperback 0.477908 1.94864 -1.80217
thorax -0.0417163 0.964706 0.83311
lowerneck -10.3221 -7.60539 -9.45595
upperneck 26.7718 -10.8201 6.61317
head 11.2656 -5.20569 2.55728
rclavicle -2.72665e-014 1.90833e-014
rhumerus -47.4807 19.4913 -103.458
rradius 79.0961
rwrist -10.812
rhand -31.8416 40.5561
rfingers 7.12502
rthumb -5.0958 10.6373
lclavicle -2.72665e-014 1.90833e-014
lhumerus -48.518 28.0646 52.6994
lradius 37.1504
lwrist 164.584
lhand -27.8171 -25.0576
lfingers 7.12502
lthumb -1.20929 4.91874
rfemur -10.5649 0.752845 15.4634
rtibia 41.7839
rfoot -14.015 -13.9165
rtoes 2.50694
lfemur -13.4874 -4.24009 -19.2562
ltibia 24.1895
lfoot -9.41573 8.02716
ltoes 1.96146
112
root 12.7276 18.5353 -6.11578 -2.13174 -19.7103 1.59636
lowerback 1.02673 1.41071 -5.04775
upperback 0.406487 1.81973 -1.7667
thorax -0.257773 0.905258 0.988714
lowerneck -10.1982 -7.53406 -9.44087
upperneck 26.5046 -10.7274 6.67043
head 11.1324 -5.16099 2.59346
rclavicle -3.03147e-014 1.66979e-014
rhumerus -47.1032 19.5448 -103.25
rradius 79.3894
rwrist -11.2547
rhand -31.2516 40.2571
rfingers 7.12502
rthumb -4.52606 10.3254
lclavicle -3.03147e-014 1.66979e-014
lhumerus -47.7026 27.6306 53.2454
lradius 37.6819
lwrist 165.389
lhand -27.5292 -24.6431
lfingers 7.12502
lthumb -0.931235 5.33456
rfemur -10.4867 0.886209 15.2311
rtibia 41.2248
rfoot -14.1853 -13.7011
rtoes 2.4556
lfemur -13.3178 -3.98875 -19.3346
ltibia 24.068
lfoot -9.35092 7.90844
ltoes 1.4825
113
root 12.7253 18.5431 -6.10363 -2.28115 -19.8315 1.92235
lowerback 1.09905 1.36004 -5.57452
upperback 0.375607 1.73967 -1.73245
thorax -0.342227 0.86723 1.31573
lowerneck -9.98504 -7.54412 -9.58773
upperneck 26.1823 -10.7366 6.78205
head 10.9858 -5.1747 2.66336
rclavicle -3.82505e-015 8.74653e-015
rhumerus -46.9686 19.6673 -102.987
rradius 79.9975
rwrist -11.8405
rhand -30.553 39.8524
rfingers 7.12502
rthumb -3.85149 9.90751
lclavicle -3.82505e-015 8.74653e-015
lhumerus -46.9663 27.1345 53.9505
lradius 38.4677
lwrist 166.355
lhand -26.9883 -24.4661
lfingers 7.12502
lthumb -0.4088 5.51327
rfemur -10.4285 0.968538 14.707
rtibia 40.6707
rfoot -14.0244 -13.378
rtoes 1.32586
lfemur -13.0376 -4.7462 -19.6795
ltibia 23.8025
lfoot -9.69862 8.77457
ltoes 2.35857
114
root 12.7286 18.5466 -6.09467 -2.3199 -19.9768 2.0405
lowerback 0.964396 1.30134 -5.70116
upperback 0.46663 1.67436 -1.75661
thorax -0.171625 0.828929 1.36729
lowerneck -9.98991 -7.61815 -9.57991
upperneck 25.9675 -10.8496 6.86006
head 10.9214 -5.2178 2.67274
rclavicle 1.14915e-014 0
rhumerus -46.7828 19.9945 -102.865
rradius 80.69
rwrist -12.3353
rhand -30.3691 38.9389
rfingers 7.12502
rthumb -3.67393 8.99078
lclavicle 1.14915e-014 0
lhumerus -45.9047 26.8063 54.5364
lradius 39.0765
lwrist 167.568
lhand -26.7124 -24.8118
lfingers 7.12502
lthumb -0.142285 5.16789
rfemur -10.3919 1.10972 14.3918
rtibia 40.103
rfoot -13.7951 -13.0961
rtoes -0.190535
lfemur -12.7715 -6.23516 -19.8006
ltibia 23.5173
lfoot -10.2132 10.2423
ltoes 2.19541
115
root 12.7354 18.5443 -6.08421 -2.5242 -20.0743 2.31991
lowerback 0.845954 1.18511 -5.79504
upperback 0.640006 1.53546 -1.9227
thorax 0.0846561 0.750136 1.2562
lowerneck -10.1134 -7.58987 -9.33891
upperneck 25.7202 -10.8384 6.89614
head 10.838 -5.18385 2.64308
rclavicle 9.7389e-015 -7.15625e-015
rhumerus -46.5141 20.3386 -102.87
rradius 81.47
rwrist -12.7879
rhand -30.3132 38.5812
rfingers 7.12502
rthumb -3.61992 8.63217
lclavicle 9.7389e-015 -7.15625e-015
lhumerus -44.5968 26.6828 54.8657
lradius 39.3552
lwrist 168.718
lhand -26.6515 -25.1421
lfingers 7.12502
lthumb -0.0834829 4.83765
rfemur -10.1899 1.20432 13.8901
rtibia 39.5403
rfoot -13.7137 -12.8243
rtoes -0.717332
lfemur -12.4363 -7.06204 -20.1297
ltibia 23.2894
lfoot -10.328 11.066
ltoes 1.01395
116
root 12.7366 18.5436 -6.0792 -2.68161 -20.1837 2.51246
lowerback 0.847675 1.06989 -5.94366
upperback 0.692017 1.38297 -2.01469
thorax 0.146016 0.671034 1.24673
lowerneck -10.0622 -7.51485 -9.14881
upperneck 25.4233 -10.7552 6.91102
head 10.6974 -5.1302 2.63089
rclavicle 6.71721e-014 2.14687e-014
rhumerus -46.4563 20.5829 -102.871
rradius 82.4187
rwrist -13.248
rhand -29.9737 38.6981
rfingers 7.12502
rthumb -3.29206 8.74377
lclavicle 6.71721e-014 2.14687e-014
lhumerus -43.4769 26.5681 55.1035
lradius 39.7142
lwrist 169.356
lhand -27.1772 -26.1928
lfingers 7.12502
lthumb -0.5912 3.78612
rfemur -9.97921 1.39761 13.5234
rtibia 38.9892
rfoot -13.4872 -12.7013
rtoes -0.711852
lfemur -12.2459 -6.49877 -20.3689
ltibia 23.1372
lfoot -10.1909 10.7872
ltoes 1.85233
117
root 12.7376 18.5468 -6.08046 -2.59578 -20.3183 2.42761
lowerback 0.866044 0.982583 -5.91649
upperback 0.617643 1.26191 -1.96098
thorax 0.0663418 0.613967 1.28698
lowerneck -9.89517 -7.49623 -9.12695
upperneck 25.0995 -10.7294 6.93995
head 10.5428 -5.12042 2.64677
rclavicle 3.7747e-014 7.95139e-016
rhumerus -46.5927 20.9281 -102.855
rradius 83.3648
rwrist -13.4721
rhand -29.9127 38.4466
rfingers 7.12502
rthumb -3.2331 8.49139
lclavicle 3.7747e-014 7.95139e-016
lhumerus -42.7002 26.3284 55.4389
lradius 40.3505
lwrist 170.112
lhand -27.5678 -27.4853
lfingers 7.12502
lthumb -0.968487 2.49223
rfemur -9.90704 1.68489 13.4897
rtibia 38.4568
rfoot -13.2132 -12.694
rtoes -1.75498
lfemur -12.2941 -6.18713 -20.274
ltibia 23.0945
lfoot -10.3153 10.717
ltoes 3.22109
118
root 12.742 18.5519 -6.07957 -2.52108 -20.4761 2.36134
lowerback 0.84857 0.937768 -5.8679
upperback 0.606842 1.20376 -1.89333
thorax 0.0683538 0.585262 1.33032
lowerneck -9.70854 -7.50142 -9.12318
upperneck 24.5939 -10.7385 7.04383
head 10.328 -5.12124 2.68774
rclavicle -5.90841e-015 -3.18055e-014
rhumerus -46.6671 21.4168 -102.793
rradius 84.3731
rwrist -13.4741
rhand -30.0879 37.427
rfingers 7.12502
rthumb -3.4023 7.47441
lclavicle -5.90841e-015 -3.18055e-014
lhumerus -41.9028 25.9717 55.9516
lradius 41.0053
lwrist 171.357
lhand -27.0104 -27.0806
lfingers 7.12502
lthumb -0.430134 2.89869
rfemur -9.80487 2.0967 13.4488
rtibia 37.9547
rfoot -13.2392 -12.6559
rtoes -2.33235
lfemur -12.3391 -6.41922 -20.1975
ltibia 23.1545
lfoot -10.5406 11.0688
ltoes 3.54376
119
root 12.7441 18.5521 -6.08519 -2.42466 -20.6515 2.16037
lowerback 0.868244 0.907377 -5.66518
upperback 0.589407 1.16277 -1.83206
thorax 0.0446249 0.566327 1.28042
lowerneck -9.50594 -7.46697 -9.04875
upperneck 24.0936 -10.7059 7.14751
head 10.1054 -5.09755 2.72352
rclavicle -2.6881e-014 -1.59028e-015
rhumerus -46.7716 21.804 -102.76
rradius 85.5096
rwrist -13.5352
rhand -29.8924 36.1946
rfingers 7.12502
rthumb -3.21356 6.23912
lclavicle -2.6881e-014 -1.59028e-015
lhumerus -40.9376 25.6787 56.3606
lradius 41.4021
lwrist 172.296
lhand -26.5645 -26.0201
lfingers 7.12502
lthumb 0.000572796 3.95967
rfemur -9.70509 2.60034 13.5866
rtibia 37.4999
rfoot -13.3828 -12.7374
rtoes -1.27338
lfemur -12.3608 -6.53656 -19.9592
ltibia 23.15
lfoot -10.5877 11.3708
ltoes 3.43472
120
root 12.7417 18.5444 -6.09233 -2.32424 -20.8081 1.92722
lowerback 0.871043 0.791504 -5.47579
upperback 0.514139 1.00689 -1.71539
thorax -0.0234474 0.491942 1.29584
lowerneck -9.34461 -7.31791 -9.00699
upperneck 23.7431 -10.4859 7.14477
head 9.92455 -4.99969 2.75121
rclavicle 4.15382e-014 -1.03368e-014
rhumerus -47.1937 22.2934 -102.845
rradius 86.8265
rwrist -13.7332
rhand -29.4052 35.4191
rfingers 7.12502
rthumb -2.74303 5.45697
lclavicle 4.15382e-014 -1.03368e-014
lhumerus -40.1964 25.6322 56.5595
lradius 41.7892
lwrist 172.982
lhand -26.3814 -25.9568
lfingers 7.12502
lthumb 0.177377 4.02288
rfemur -9.59719 2.94679 13.7656
rtibia 37.0978
rfoot -13.4913 -12.8123
rtoes 0.241258
lfemur -12.3349 -6.79083 -19.6564
ltibia 23.0292
lfoot -10.4259 11.7322
ltoes 1.64687
121
root 12.7381 18.5417 -6.08708 -2.40141 -20.8965 2.02915
lowerback 0.752531 0.654937 -5.59898
upperback 0.492131 0.832168 -1.65695
thorax 0.0288739 0.403628 1.42773
lowerneck -9.36146 -7.21215 -8.93961
upperneck 23.6946 -10.3106 7.01156
head 9.88222 -4.92675 2.71655
rclavicle -2.2531e-014 2.06736e-014
rhumerus -47.7897 22.9759 -103.057
rradius 88.3387
rwrist -13.6198
rhand -29.6993 34.446
rfingers 7.12502
rthumb -3.02707 4.48776
lclavicle -2.2531e-014 2.06736e-014
lhumerus -39.5544 25.4782 56.7914
lradius 42.3582
lwrist 173.863
lhand -26.4497 -26.5283
lfingers 7.12502
lthumb 0.111404 3.45137
rfemur -9.32263 3.168 13.5233
rtibia 36.7026
rfoot -13.7136 -12.6126
rtoes 1.815
lfemur -12.191 -7.01017 -19.7286
ltibia 22.9384
lfoot -10.2156 11.8904
ltoes -1.34104
122
root 12.7335 18.5475 -6.07975 -2.56231 -20.9482 2.3206
lowerback 0.635754 0.599715 -5.78443
upperback 0.506793 0.76666 -1.74131
thorax 0.112703 0.368107 1.44639
lowerneck -9.42523 -7.23927 -8.84146
upperneck 23.7597 -10.3589 6.96655
head 9.91372 -4.94373 2.67607
rclavicle 1.74962e-014 -1.66979e-014
rhumerus -48.3542 23.4329 -103.285
rradius 89.8526
rwrist -13.2376
rhand -30.5732 33.6734
rfingers 7.12502
rthumb -3.87102 3.72881
lclavicle 1.74962e-014 -1.66979e-014
lhumerus -38.65 24.9917 57.1067
lradius 42.8932
lwrist 174.992
lhand -26.8397 -27.0952
lfingers 7.12502
lthumb -0.265226 2.88443
rfemur -9.00065 3.26341 13.0548
rtibia 36.2982
rfoot -13.9651 -12.3151
rtoes 2.45638
lfemur -12.0265 -7.19421 -20.0195
ltibia 22.879
lfoot -10.405 12.009
ltoes -1.6016
123
root 12.7275 18.5476 -6.0823 -2.56479 -21.1077 2.21685
lowerback 0.539523 0.675056 -5.49978
upperback 0.600398 0.879934 -1.77341
thorax 0.259899 0.420582 1.25599
lowerneck -9.47535 -7.35124 -8.83748
upperneck 23.4595 -10.5555 7.22538
head 9.84874 -5.00775 2.73725
rclavicle -2.12203e-014 -3.26007e-014
rhumerus -48.6431 23.4836 -103.21
rradius 91.2881
rwrist -13.2053
rhand -30.6771 33.5495
rfingers 7.12502
rthumb -3.97132 3.60674
lclavicle -2.12203e-014 -3.26007e-014
lhumerus -37.3836 24.4684 57.6288
lradius 43.384
lwrist 176.044
lhand -26.8264 -27.2273
lfingers 7.12502
lthumb -0.252441 2.75232
rfemur -8.69363 3.43992 13.0973
rtibia 35.8756
rfoot -14.006 -12.1851
rtoes 0.75106
lfemur -11.9353 -7.24672 -19.8795
ltibia 22.8281
lfoot -10.6325 12.2088
ltoes -1.37539
